HIERARCHY
ROOT Hips
{
  OFFSET 0.0000 0.0000 0.0000
  CHANNELS 6 Xposition Yposition Zposition Zrotation Xrotation Yrotation
  JOINT LeftHip
  {
    OFFSET 3.7500 0.0000 0.0000
    CHANNELS 3 Zrotation Xrotation Yrotation
    JOINT LeftKnee
    {
      OFFSET 0.0000 -15.5000 0.0000
      CHANNELS 3 Zrotation Xrotation Yrotation
      JOINT LeftAnkle
      {
        OFFSET 0.0000 -15.5000 0.0000
        CHANNELS 3 Zrotation Xrotation Yrotation
        End Site
        {
          OFFSET 0.0000 -2.5296 0.0000
        }
      }
    }
  }
  JOINT RightHip
  {
    OFFSET -3.7500 0.0000 0.0000
    CHANNELS 3 Zrotation Xrotation Yrotation
    JOINT RightKnee
    {
      OFFSET -0.0000 -15.5000 0.0000
      CHANNELS 3 Zrotation Xrotation Yrotation
      JOINT RightAnkle
      {
        OFFSET 0.0000 -15.5000 0.0000
        CHANNELS 3 Zrotation Xrotation Yrotation
        End Site
        {
          OFFSET 0.0000 -2.5296 0.0000
        }
      }
    }
  }
  JOINT Chest
  {
    OFFSET 0.0000 4.5700 0.0000
    CHANNELS 3 Zrotation Xrotation Yrotation
    JOINT Chest2
    {
      OFFSET 0.0000 8.1184 -0.0000
      CHANNELS 3 Zrotation Xrotation Yrotation
      JOINT LeftCollar
      {
        OFFSET 1.5000 9.7058 0.5000
        CHANNELS 3 Zrotation Xrotation Yrotation
        JOINT LeftShoulder
        {
          OFFSET 5.2500 0.0000 0.0000
          CHANNELS 3 Zrotation Xrotation Yrotation
          JOINT LeftElbow
          {
            OFFSET 0.0000 -11.0000 0.0000
            CHANNELS 3 Zrotation Xrotation Yrotation
            JOINT LeftWrist
            {
              OFFSET 0.0000 -9.8200 0.0000
              CHANNELS 3 Zrotation Xrotation Yrotation
              End Site
              {
                OFFSET 0.0000 -7.0000 0.0000
              }
            }
          }
        }
      }
      JOINT RightCollar
      {
        OFFSET -1.5000 9.7058 0.5000
        CHANNELS 3 Zrotation Xrotation Yrotation
        JOINT RightShoulder
        {
          OFFSET -5.2500 -0.0000 0.0000
          CHANNELS 3 Zrotation Xrotation Yrotation
          JOINT RightElbow
          {
            OFFSET -0.0000 -11.0000 -0.0000
            CHANNELS 3 Zrotation Xrotation Yrotation
            JOINT RightWrist
            {
              OFFSET 0.0000 -9.8200 0.0000
              CHANNELS 3 Zrotation Xrotation Yrotation
              End Site
              {
                OFFSET -0.0000 -7.0000 0.0000
              }
            }
          }
        }
      }
      JOINT Neck
      {
        OFFSET 0.0000 9.5000 0.0000
        CHANNELS 3 Zrotation Xrotation Yrotation
        JOINT Head
        {
          OFFSET 0.0000 5.2180 0.0000
          CHANNELS 3 Zrotation Xrotation Yrotation
          End Site
          {
            OFFSET 0.0000 4.1400 0.0000
          }
        }
      }
    }
  }
}
MOTION
Frames:	20
Frame Time:	0.033333
-1.3037 17.5115 -6.2783 24.19 -45.13 29.35 -24.06 -68.31 -17.39 -8.32 22.58 16.63 0.70 16.16 -0.55 9.23 -56.03 13.81 0.12 0.72 4.43 9.61 18.48 -1.71 6.49 14.37 -5.15 -11.86 20.00 1.08 -25.04 4.69 -4.67 51.88 -54.67 -71.09 130.04 -65.19 131.33 -28.37 -10.42 -1.51 26.26 2.42 -0.96 -19.90 -57.06 111.92 -130.00 -66.07 -131.11 -29.01 12.26 -15.23 -1.68 31.68 -3.55 2.16 -33.67 -12.87 
-1.3029 17.5112 -6.2774 24.23 -45.14 29.35 -24.01 -68.30 -17.32 -8.33 22.60 16.65 0.76 16.13 -0.56 9.24 -56.01 13.82 0.12 0.72 4.46 9.64 18.47 -1.71 6.48 14.34 -5.20 -11.89 20.06 1.05 -24.93 4.67 -4.65 52.32 -55.19 -73.78 131.20 -63.29 132.93 -27.94 -8.33 -4.02 26.17 2.43 -0.92 -21.06 -57.53 111.14 -131.47 -65.52 -132.69 -29.12 12.27 -15.20 -2.11 31.65 -3.42 2.15 -33.63 -12.98 
-1.3023 17.5138 -6.2794 24.28 -45.16 29.34 -23.90 -68.28 -17.21 -8.34 22.63 16.67 0.82 16.13 -0.58 9.27 -55.95 13.84 0.12 0.73 4.61 9.28 18.39 -1.63 6.47 14.27 -5.21 -11.92 20.13 1.05 -24.94 4.67 -4.64 52.92 -55.73 -76.12 131.77 -61.97 133.82 -25.81 -6.80 -5.91 26.17 2.44 -0.89 -21.37 -58.01 111.39 -132.19 -65.03 -133.52 -29.44 12.57 -15.09 -2.48 31.64 -3.30 2.13 -33.51 -13.04 
-1.3036 17.5175 -6.2830 24.33 -45.19 29.35 -23.77 -68.22 -17.08 -8.34 22.60 16.64 0.83 16.18 -0.58 9.28 -55.89 13.83 0.12 0.73 4.70 9.11 18.38 -1.60 6.49 14.19 -5.18 -11.94 20.19 1.08 -24.99 4.72 -4.73 53.85 -56.08 -77.48 131.97 -61.17 134.22 -23.38 -6.18 -7.33 26.10 2.45 -0.86 -21.90 -58.27 111.43 -132.86 -64.58 -134.29 -29.81 12.65 -14.84 -2.84 31.64 -3.20 2.17 -33.34 -13.17 
-1.3040 17.5206 -6.2844 24.37 -45.22 29.37 -23.68 -68.18 -16.98 -8.35 22.58 16.64 0.78 16.22 -0.57 9.26 -55.84 13.82 0.12 0.73 4.73 9.15 18.38 -1.61 6.53 14.11 -5.15 -11.99 20.25 1.14 -25.00 4.78 -4.87 54.82 -56.18 -77.95 132.05 -60.72 134.41 -21.69 -6.03 -8.36 26.00 2.45 -0.85 -22.93 -58.24 110.99 -133.53 -64.16 -135.06 -30.16 12.38 -14.52 -3.13 31.60 -3.16 2.17 -33.17 -13.37 
-1.3014 17.5212 -6.2855 24.45 -45.22 29.41 -23.64 -68.15 -16.91 -8.37 22.55 16.73 0.73 16.23 -0.56 9.22 -55.82 13.77 0.13 0.74 4.88 9.09 18.38 -1.59 6.54 13.98 -5.11 -12.02 20.38 1.19 -24.99 4.81 -4.94 55.63 -56.12 -78.14 132.21 -60.33 134.68 -20.51 -5.79 -9.59 25.88 2.44 -0.86 -23.47 -58.14 110.95 -133.82 -63.90 -135.40 -30.45 12.12 -14.15 -3.40 31.56 -3.14 2.04 -33.15 -13.62 
-1.2956 17.5221 -6.2857 24.56 -45.20 29.46 -23.60 -68.13 -16.82 -8.42 22.53 16.85 0.70 16.19 -0.56 9.16 -55.81 13.70 0.13 0.74 5.01 9.13 18.39 -1.60 6.58 13.86 -5.09 -12.09 20.48 1.24 -24.92 4.80 -4.96 56.15 -55.86 -78.55 132.43 -59.89 135.02 -19.27 -5.44 -11.20 25.86 2.46 -0.79 -23.70 -58.05 111.29 -133.81 -63.68 -135.44 -30.78 12.00 -13.71 -3.67 31.57 -3.10 1.84 -33.34 -13.81 
-1.2903 17.5215 -6.2819 24.65 -45.20 29.54 -23.61 -68.08 -16.78 -8.47 22.51 16.88 0.75 16.12 -0.58 9.06 -55.80 13.61 0.13 0.74 5.05 9.44 18.39 -1.66 6.68 13.75 -5.13 -12.21 20.59 1.29 -24.85 4.79 -4.93 56.54 -55.56 -79.32 132.61 -59.36 135.34 -17.84 -5.07 -13.02 25.87 2.51 -0.69 -23.94 -57.93 111.78 -133.74 -63.42 -135.43 -31.20 11.86 -13.21 -3.97 31.54 -3.05 1.69 -33.61 -13.98 
-1.2880 17.5204 -6.2814 24.72 -45.21 29.60 -23.56 -68.03 -16.67 -8.51 22.46 16.83 0.84 16.13 -0.61 8.99 -55.79 13.55 0.13 0.74 5.01 9.80 18.45 -1.74 6.80 13.64 -5.13 -12.29 20.73 1.36 -24.88 4.80 -4.95 56.96 -55.25 -80.27 132.60 -58.81 135.48 -16.46 -4.78 -14.81 25.87 2.56 -0.58 -24.54 -57.69 112.20 -133.61 -63.09 -135.37 -31.78 11.47 -12.54 -4.32 31.47 -2.99 1.63 -33.91 -14.19 
-1.2877 17.5154 -6.2843 24.72 -45.21 29.63 -23.56 -67.97 -16.62 -8.52 22.34 16.80 0.90 16.25 -0.63 8.95 -55.82 13.52 0.12 0.74 4.91 9.90 18.52 -1.77 6.90 13.55 -5.09 -12.29 20.84 1.44 -24.90 4.81 -4.98 57.11 -54.89 -81.35 132.48 -58.35 135.50 -15.11 -4.25 -16.63 25.89 2.57 -0.54 -25.30 -57.30 112.65 -133.36 -62.72 -135.22 -32.38 10.95 -11.80 -4.69 31.36 -2.98 1.65 -34.15 -14.53 
-1.2881 17.5087 -6.2886 24.71 -45.20 29.65 -23.58 -67.92 -16.62 -8.50 22.20 16.80 0.94 16.37 -0.65 8.93 -55.83 13.52 0.12 0.75 4.90 9.72 18.52 -1.74 6.98 13.49 -5.02 -12.25 20.93 1.52 -24.86 4.82 -5.00 56.90 -54.40 -82.45 132.33 -57.99 135.46 -13.91 -3.78 -18.27 25.89 2.58 -0.53 -25.87 -56.84 113.17 -132.94 -62.45 -134.86 -32.93 10.35 -11.05 -5.06 31.20 -2.97 1.72 -34.32 -14.90 
-1.2886 17.5048 -6.2892 24.71 -45.20 29.70 -23.75 -67.87 -16.83 -8.43 22.13 16.88 0.85 16.44 -0.62 8.87 -55.83 13.47 0.12 0.75 4.96 9.49 18.46 -1.69 7.03 13.39 -5.02 -12.22 21.08 1.55 -24.80 4.81 -5.01 56.58 -53.71 -83.34 132.21 -57.69 135.42 -13.12 -3.75 -19.29 25.93 2.60 -0.50 -26.25 -56.36 113.70 -132.44 -62.32 -134.40 -33.28 9.74 -10.40 -5.34 31.08 -2.97 1.66 -34.61 -15.18 
-1.2881 17.5067 -6.2877 24.74 -45.23 29.78 -24.09 -67.79 -17.28 -8.28 22.12 16.95 0.70 16.48 -0.57 8.77 -55.80 13.38 0.12 0.75 4.98 9.59 18.42 -1.71 7.03 13.24 -5.03 -12.14 21.34 1.53 -24.79 4.81 -5.01 56.30 -53.01 -83.98 132.05 -57.53 135.31 -12.52 -4.17 -19.46 25.93 2.63 -0.43 -26.49 -55.88 114.02 -131.83 -62.43 -133.76 -33.40 9.11 -9.98 -5.65 30.98 -2.95 1.64 -35.02 -15.43 
-1.2887 17.5061 -6.2878 24.74 -45.24 29.83 -24.35 -67.71 -17.63 -8.14 22.04 16.86 0.73 16.55 -0.57 8.70 -55.79 13.32 0.12 0.75 4.97 9.62 18.41 -1.71 7.03 13.11 -5.02 -12.09 21.59 1.54 -24.78 4.81 -5.01 56.03 -52.43 -84.59 131.82 -57.47 135.10 -11.78 -4.81 -19.45 25.92 2.64 -0.39 -26.58 -55.34 114.11 -131.16 -62.72 -133.02 -33.31 8.49 -9.65 -5.88 30.88 -2.96 1.61 -35.37 -15.70 
-1.2903 17.4996 -6.2925 24.73 -45.23 29.82 -24.43 -67.66 -17.74 -8.08 21.95 16.79 0.82 16.60 -0.59 8.70 -55.81 13.33 0.12 0.76 4.98 9.46 18.40 -1.68 7.06 12.98 -4.97 -12.10 21.80 1.62 -24.77 4.82 -5.04 55.87 -52.00 -85.21 131.49 -57.42 134.79 -11.07 -5.48 -19.72 25.90 2.63 -0.42 -26.59 -54.87 114.15 -130.51 -63.05 -132.29 -33.19 7.92 -9.40 -5.96 30.81 -3.05 1.45 -35.76 -16.03 
-1.2890 17.4887 -6.2975 24.72 -45.20 29.83 -24.57 -67.64 -17.87 -8.03 21.82 16.84 0.83 16.65 -0.59 8.66 -55.86 13.29 0.12 0.77 5.00 9.36 18.41 -1.66 7.07 12.86 -4.96 -12.12 21.98 1.65 -24.77 4.82 -5.04 55.77 -51.68 -85.69 131.19 -57.40 134.49 -10.48 -6.01 -20.28 25.91 2.64 -0.40 -26.73 -54.54 114.18 -129.94 -63.31 -131.66 -33.16 7.38 -9.22 -6.00 30.79 -3.12 1.21 -36.19 -16.27 
-1.2839 17.4807 -6.2987 24.74 -45.16 29.83 -24.64 -67.65 -17.94 -8.01 21.78 16.97 0.84 16.65 -0.59 8.64 -55.90 13.27 0.13 0.77 5.03 9.43 18.41 -1.67 7.04 12.73 -4.93 -12.13 22.19 1.69 -24.77 4.82 -5.03 55.68 -51.50 -85.88 130.98 -57.46 134.26 -10.15 -6.45 -20.49 25.91 2.67 -0.33 -26.85 -54.33 114.07 -129.52 -63.55 -131.17 -33.04 6.98 -9.10 -6.09 30.79 -3.15 1.05 -36.64 -16.44 
-1.2816 17.4782 -6.2984 24.80 -45.17 29.86 -24.67 -67.64 -17.97 -8.01 21.79 17.05 0.80 16.65 -0.58 8.61 -55.89 13.23 0.13 0.78 5.09 9.40 18.42 -1.66 7.00 12.65 -4.90 -12.12 22.34 1.72 -24.75 4.82 -5.05 55.45 -51.33 -85.89 130.76 -57.63 133.99 -10.04 -6.71 -20.33 25.92 2.70 -0.27 -26.94 -54.17 113.84 -129.18 -63.79 -130.78 -32.83 6.73 -9.02 -6.23 30.83 -3.15 1.09 -36.95 -16.59 
-1.2831 17.4820 -6.2975 24.82 -45.20 29.88 -24.62 -67.59 -17.93 -8.00 21.79 16.97 0.83 16.70 -0.59 8.60 -55.84 13.22 0.13 0.78 5.10 9.25 18.42 -1.63 6.98 12.62 -4.86 -12.13 22.40 1.75 -24.72 4.83 -5.08 55.14 -51.22 -85.97 130.55 -57.80 133.73 -9.95 -6.70 -20.27 25.96 2.70 -0.28 -26.97 -54.09 113.68 -128.93 -63.95 -130.49 -32.63 6.55 -9.09 -6.34 30.89 -3.18 1.14 -37.10 -16.80 
-1.2839 17.4886 -6.2963 24.82 -45.24 29.87 -24.50 -67.59 -17.82 -8.03 21.86 16.90 0.84 16.70 -0.59 8.63 -55.78 13.24 0.13 0.78 5.10 9.20 18.43 -1.63 6.97 12.59 -4.83 -12.12 22.43 1.77 -24.72 4.84 -5.09 54.85 -51.17 -86.11 130.35 -57.92 133.50 -9.95 -6.76 -19.97 26.00 2.69 -0.29 -27.06 -54.05 113.62 -128.75 -64.00 -130.29 -32.47 6.41 -9.11 -6.44 30.97 -3.23 1.09 -37.12 -17.09 
